<?xml version="1.0" standalone="no"?>
<!DOCTYPE svg PUBLIC "-//W3C//DTD SVG 20010904//EN"
 "http://www.w3.org/TR/2001/REC-SVG-20010904/DTD/svg10.dtd">
<svg version="1.0" xmlns="http://www.w3.org/2000/svg"
 width="700.000000pt" height="700.000000pt" viewBox="0 0 700.000000 700.000000"
 preserveAspectRatio="xMidYMid meet">
<metadata>
Created by potrace 1.11, written by Peter Selinger 2001-2013
</metadata>
<g transform="translate(0.000000,700.000000) scale(0.100000,-0.100000)"
fill="#000000" stroke="none">
<path d="M4547 6164 c-1 -1 -83 -5 -182 -8 -99 -4 -196 -9 -215 -11 -19 -2
-82 -7 -140 -10 -58 -4 -112 -9 -120 -10 -8 -2 -49 -6 -90 -10 -41 -3 -82 -8
-90 -10 -8 -2 -49 -7 -90 -10 -153 -14 -248 -73 -308 -191 -32 -62 -41 -130
-26 -201 24 -118 82 -191 193 -245 62 -30 68 -30 155 -24 50 4 107 8 126 10
19 3 60 7 90 11 215 24 506 39 779 40 l223 0 33 -38 c110 -127 86 -380 -62
-657 -131 -246 -332 -505 -614 -795 -85 -88 -146 -159 -162 -191 -25 -49 -27
-50 -74 -53 -26 -1 -64 -4 -83 -6 -19 -2 -82 -6 -140 -10 -58 -4 -121 -8 -140
-10 -120 -11 -259 -19 -350 -19 -102 -1 -107 0 -179 37 -66 34 -182 110 -427
280 -47 33 -144 83 -235 123 -166 73 -189 87 -226 137 -42 57 -75 216 -59 281
10 39 53 72 115 90 72 20 126 25 351 31 208 5 281 10 423 26 96 11 101 13 187
70 65 42 91 65 95 84 12 60 14 73 21 133 l6 63 -45 44 c-65 62 -153 119 -217
140 -48 17 -94 19 -365 21 -170 1 -341 4 -380 8 -129 12 -190 18 -192 19 -1 1
-4 79 -7 172 -7 194 -10 229 -32 305 -50 174 -154 258 -306 247 -141 -9 -223
-103 -254 -292 -4 -22 -7 -113 -8 -202 -1 -148 -3 -164 -22 -190 -26 -34 -72
-48 -184 -56 -47 -4 -98 -9 -115 -11 -16 -2 -75 -9 -130 -16 -55 -6 -113 -13
-130 -16 -85 -13 -107 -15 -185 -19 -268 -15 -285 -17 -339 -45 -92 -47 -140
-129 -148 -252 -10 -130 39 -210 164 -273 63 -32 119 -37 238 -21 79 10 107
13 185 21 36 3 72 8 80 10 8 2 42 7 75 10 33 3 94 10 135 15 41 5 98 12 125
15 28 3 64 7 80 9 17 2 59 7 95 11 36 4 68 9 73 12 4 2 7 -22 8 -54 1 -155 7
-337 13 -424 l7 -95 -253 -316 c-139 -174 -265 -331 -280 -350 -14 -18 -35
-43 -45 -55 -10 -11 -47 -58 -82 -103 -36 -45 -70 -87 -76 -94 -6 -6 -72 -92
-146 -191 -192 -256 -241 -339 -233 -393 7 -42 52 -117 101 -168 82 -86 134
-102 225 -74 97 30 237 146 334 277 16 21 32 40 36 43 3 3 99 144 212 314
l206 308 1 -49 c1 -59 5 -173 14 -403 4 -96 8 -215 10 -265 2 -49 6 -151 9
-225 13 -301 17 -438 21 -725 4 -374 12 -451 55 -535 54 -106 217 -169 361
-139 80 17 137 92 159 210 7 34 10 472 11 1187 l0 1134 27 -7 c68 -16 280
-132 413 -226 180 -128 239 -166 310 -200 91 -44 122 -50 162 -29 70 38 185
53 266 35 33 -7 32 -19 -6 -60 -10 -11 -49 -56 -87 -100 -38 -44 -80 -93 -95
-110 -230 -265 -456 -542 -608 -748 -50 -68 -106 -150 -123 -181 -30 -52 -32
-62 -27 -119 15 -160 82 -232 228 -244 l69 -6 98 99 c54 54 116 122 139 149
269 325 306 366 369 413 97 73 158 95 264 93 105 -1 176 -20 172 -47 -8 -43
-82 -240 -135 -354 -14 -30 -38 -84 -53 -120 -16 -36 -98 -202 -182 -369 -137
-271 -153 -309 -148 -342 8 -58 30 -102 70 -143 45 -44 88 -63 165 -72 50 -5
67 -3 104 15 135 65 274 279 508 781 91 196 223 452 271 526 25 39 64 89 87
113 41 41 42 42 89 34 57 -9 223 -9 310 0 l62 7 0 -33 c0 -19 -121 -334 -298
-778 l-299 -746 38 -79 c62 -129 122 -181 223 -191 77 -8 129 10 179 63 56 58
81 106 161 301 35 87 72 175 80 195 9 21 27 45 41 54 31 20 49 18 330 -30 255
-44 270 -45 415 -46 130 -1 173 4 280 31 274 70 459 288 515 604 2 17 7 39 9
51 16 78 22 288 12 388 -33 312 -204 530 -514 656 -129 52 -342 100 -517 115
-44 4 -96 9 -115 12 -19 2 -358 3 -753 3 l-719 -1 33 48 c107 157 258 244 464
269 22 3 51 7 65 10 54 9 287 15 790 19 289 3 548 7 575 9 246 24 342 54 416
128 52 52 73 121 65 209 -3 37 -11 80 -17 96 -25 66 -85 119 -148 129 -14 3
-51 9 -81 14 -30 5 -71 12 -90 15 -19 3 -73 13 -120 21 -79 15 -201 15 -360 0
-19 -2 -80 -7 -135 -11 -186 -12 -210 -14 -295 -20 -47 -3 -110 -9 -140 -11
-52 -5 -53 -4 -39 13 9 10 35 43 60 73 24 30 46 57 49 60 11 11 120 159 162
220 181 264 288 483 343 705 35 142 43 212 40 360 -11 464 -284 819 -682 886
-55 9 -377 20 -386 13z m1263 -3962 c101 -35 151 -89 180 -195 37 -136 22
-288 -37 -356 -58 -68 -134 -79 -283 -41 -84 21 -412 120 -418 126 -13 10 92
250 192 440 l69 132 126 -45 c69 -25 146 -52 171 -61z"/>
</g>
</svg>
